<svg width="454" height="497" viewBox="0 0 454 497" fill="none" xmlns="http://www.w3.org/2000/svg">
<path d="M248.77 82.51L220.65 70.6C220.65 70.6 239.46 40.79 293.56 21.16L257.1 54.61L248.76 82.51H248.77Z" fill="url(#paint0_linear_23_2)"/>
<path d="M153.55 139.44C153.55 139.44 127.7 133.76 123.09 100.86C118.48 67.96 144.79 30.68 174.9 13.85L139.32 68.84L141.07 104.58L145.62 123.15L153.54 139.44H153.55Z" fill="url(#paint1_linear_23_2)"/>
<path d="M212.49 325.76C212.49 325.76 172.01 341.61 160.45 349.49C155.23 353.05 147.57 359.16 140.72 364.8C132.37 371.68 125.23 377.87 125.23 377.87C125.23 377.87 67.1499 315.86 90.0199 242.94C90.0199 242.94 93.0199 223.97 110.57 199.23L141 203.13L212.49 325.76Z" fill="url(#paint2_linear_23_2)"/>
<path d="M141.61 362.72L140.72 364.8C132.37 371.68 125.23 377.87 125.23 377.87C125.23 377.87 67.1499 315.86 90.0199 242.94C90.0199 242.94 93.0199 223.97 110.57 199.23L111.28 199.38C85.5099 247.49 102.02 306.13 102.02 306.13C122.17 362.89 141.61 362.72 141.61 362.72Z" fill="url(#paint3_linear_23_2)"/>
<path d="M212.49 325.76C212.49 325.76 145.76 317.67 134.05 257.9C134.05 257.9 128.12 223.1 139.95 204.18L179.63 213.38L242.96 316.22L212.49 325.77V325.76Z" fill="url(#paint4_linear_23_2)"/>
<path d="M295.92 295.42C295.92 295.42 238.72 292.47 222.99 252.79C222.99 252.79 216.32 239.34 218.99 226.75L179.63 213.37C179.63 213.37 164.13 256.01 191.72 283.87C219.31 311.72 242.96 316.21 242.96 316.21C242.96 316.21 270.31 306.25 295.92 295.42Z" fill="url(#paint5_linear_23_2)"/>
<path d="M325.35 238.11C317.95 245.55 297.18 247.08 297.18 247.08C274.62 248.77 242.65 235.89 216.55 225.81C192.25 216.43 110.57 199.23 110.57 199.23L124.15 192.66C149.99 187.66 210.03 214.31 210.03 214.31L255.52 232.19C263.93 235.92 276.24 239.91 281.32 241.52C283.06 241.81 285.79 242.32 289.07 242.73C308.48 245.16 317.8 239.88 317.8 239.88C317.8 239.88 332.75 230.67 325.35 238.11Z" fill="url(#paint6_linear_23_2)"/>
<path d="M236.33 165.22C240.312 165.22 243.54 161.992 243.54 158.01C243.54 154.028 240.312 150.8 236.33 150.8C232.348 150.8 229.12 154.028 229.12 158.01C229.12 161.992 232.348 165.22 236.33 165.22Z" fill="#3D84BC"/>
<path d="M100.34 409.83C100.34 409.83 58.6999 365.19 45.2499 335.29C32.7499 307.5 30.0399 290.15 28.8699 262.35C28.1499 245.36 28.1599 227.36 32.2799 207.06C43.1399 153.55 82.8199 108.65 82.8199 108.65C82.8199 108.65 63.6999 118.7 53.2099 136.33C45.9999 148.45 9.29991 187.8 18.8799 284.48C26.1299 357.59 94.3799 416.04 94.3799 416.04L100.34 409.82V409.83Z" fill="#E4FEFA"/>
<path d="M87.9099 480.6C87.9099 480.6 126.86 414.8 199.1 389.65C271.34 364.5 292.64 353.61 321.01 334.22C349.38 314.83 381.54 274.41 390.73 208.56C390.73 208.56 391.16 176.35 384.15 159.88C384.15 159.88 389.84 241.32 329.54 288.54C269.24 335.76 184.87 331.64 137.1 384.21C89.3299 436.78 87.9199 480.59 87.9199 480.59L87.9099 480.6Z" fill="url(#paint7_linear_23_2)"/>
<path d="M344.05 213.68C344.05 213.68 302.6 190.38 296.58 171.45C290.57 152.51 282.22 130.6 282.22 130.6C282.22 130.6 260.39 83.53 209.03 78.08C209.03 78.08 211.21 46.96 174.9 13.85C174.9 13.85 127.29 45.84 128.04 85.2C128.79 124.56 153.55 139.44 153.55 139.44L161.94 142.74L172.98 144.45C172.98 144.45 181.49 149.29 169.02 151.34C156.55 153.39 113.46 140.77 111.62 107.53C111.62 107.53 66.23 146.15 55.92 201.55C45.62 256.96 50.17 295.68 70.32 333.69C90.47 371.71 112.19 392.55 112.19 392.55L114.29 390.28C114.29 390.28 82.93 352.44 72.24 315.21C61.56 277.99 66.93 203.89 122.56 175.03C178.19 146.16 221.75 172.41 221.75 172.41L230.39 179.31L290.35 213.38L320.2 216.84C320.2 216.84 320.02 214.08 325.07 213.32C326.46 213.11 328.52 213.04 330.79 213.05C330.79 213.05 330.62 217.04 335.79 219.67C340.96 222.3 343.67 220.63 344.37 219.67C345.07 218.71 344.05 213.68 344.05 213.68ZM168.75 130.94C168.75 130.94 135.64 115.53 151.23 69.8C151.23 69.8 157.89 48.17 174.88 36.12C174.88 36.12 204.37 64.73 190.65 102.21C180.84 129.01 168.75 130.94 168.75 130.94ZM269.28 186.08C267.69 186.47 257.57 175.04 248.63 172.94C239.7 170.84 232.21 174.12 224.33 167.03C216.44 159.93 217.76 153.06 209.48 151.22C201.2 149.38 184.61 146.27 185.35 142.2C185.35 142.2 226.56 132.34 241.28 142.2C255.99 152.05 258.23 161.25 263.09 170.45C267.95 179.64 270.88 185.69 269.28 186.08Z" fill="url(#paint8_linear_23_2)"/>
<path d="M124.15 192.66C124.15 192.66 148.25 169.18 186.09 170.4C223.93 171.62 245.83 185.12 245.83 185.12L320.2 216.84C320.2 216.84 318.44 221.03 321.86 226.81C325.28 232.59 330.79 234.01 330.79 234.01C330.79 234.01 328.09 239.14 317.8 239.88C314.5 242 304.78 248.05 281 242C257.22 235.95 210.03 214.31 210.03 214.31L124.15 192.66Z" fill="url(#paint9_linear_23_2)"/>
<path d="M279.51 118.38L270.44 104.45C270.44 104.45 287.87 86.49 288.4 66.65C288.93 46.81 287.26 41.12 287.26 41.12C287.26 41.12 264.79 57.41 259.67 70.16C254.55 82.91 255.07 85.27 255.07 85.27L248.76 82.51C248.76 82.51 242.72 62.67 266.1 37.97C276.75 26.72 300.26 18.52 300.26 18.52C300.26 18.52 301.46 40.52 301.76 50.62C301.96 57.52 301.72 80.31 297.76 89.34C290.1 106.8 279.5 118.38 279.5 118.38H279.51Z" fill="url(#paint10_linear_23_2)"/>
<path d="M382.6 352.78C351.74 402.23 268.74 441.07 210.58 447.73C153.33 454.28 115.59 475.69 114.43 476.35C114.43 476.35 114.41 476.35 114.41 476.36C121.94 454.02 164.02 417.77 189.2 406.21C251.53 377.59 356.42 360.72 390.32 262.35C399.49 235.75 401.18 211.77 398.69 190.86C397.07 177.24 393.68 164.93 389.42 154.05C384.69 141.95 378.88 131.62 373.26 123.24C362.16 106.67 351.77 97.71 351.77 97.71C381.2 113.48 402.93 165.22 402.93 165.22C438.31 241.84 411.69 306.18 382.6 352.78Z" fill="url(#paint11_linear_23_2)"/>
<path d="M396.62 263.35C391.23 287 368.14 328.64 348.44 345.68C318.62 371.48 275.36 387.75 222.31 404.89C154.12 426.92 115.8 474.85 114.43 476.35C114.43 476.35 114.41 476.35 114.41 476.36C121.94 454.02 164.02 417.77 189.2 406.21C251.53 377.59 356.42 360.72 390.32 262.35C399.49 235.75 401.18 211.77 398.69 190.86C405.33 227.39 401.02 244.04 396.62 263.35Z" fill="#E4FEFA"/>
<path d="M212.49 462.13C212.49 462.13 298.91 458.98 354.09 411.15C409.27 363.32 431.35 309.72 433.97 245.08C433.97 245.08 451.31 324.96 382.47 395.91C313.63 466.86 249.04 463.71 212.49 462.13Z" fill="#E4FEFA"/>
<defs>
<linearGradient id="paint0_linear_23_2" x1="237.08" y1="29.9088" x2="237.08" y2="82.51" gradientUnits="userSpaceOnUse">
<stop stop-color="#D6F7FB"/>
<stop offset="0.235" stop-color="#3BDEF7"/>
<stop offset="1" stop-color="#3E60A5"/>
</linearGradient>
<linearGradient id="paint1_linear_23_2" x1="134.357" y1="31.7598" x2="134.357" y2="139.44" gradientUnits="userSpaceOnUse">
<stop stop-color="#D6F7FB"/>
<stop offset="0.235" stop-color="#3BDEF7"/>
<stop offset="1" stop-color="#3E60A5"/>
</linearGradient>
<linearGradient id="paint2_linear_23_2" x1="113.487" y1="224.705" x2="113.487" y2="377.87" gradientUnits="userSpaceOnUse">
<stop stop-color="#D6F7FB"/>
<stop offset="0.235" stop-color="#3BDEF7"/>
<stop offset="1" stop-color="#3E60A5"/>
</linearGradient>
<linearGradient id="paint3_linear_23_2" x1="97.5142" y1="224.705" x2="97.5142" y2="377.87" gradientUnits="userSpaceOnUse">
<stop stop-color="#D6F7FB"/>
<stop offset="0.235" stop-color="#3BDEF7"/>
<stop offset="1" stop-color="#3E60A5"/>
</linearGradient>
<linearGradient id="paint4_linear_23_2" x1="157.442" y1="221.519" x2="157.442" y2="325.77" gradientUnits="userSpaceOnUse">
<stop stop-color="#D6F7FB"/>
<stop offset="0.235" stop-color="#3BDEF7"/>
<stop offset="1" stop-color="#3E60A5"/>
</linearGradient>
<linearGradient id="paint5_linear_23_2" x1="202.475" y1="228.036" x2="202.475" y2="316.21" gradientUnits="userSpaceOnUse">
<stop stop-color="#D6F7FB"/>
<stop offset="0.235" stop-color="#3BDEF7"/>
<stop offset="1" stop-color="#3E60A5"/>
</linearGradient>
<linearGradient id="paint6_linear_23_2" x1="159.435" y1="199.906" x2="159.435" y2="247.231" gradientUnits="userSpaceOnUse">
<stop stop-color="#D6F7FB"/>
<stop offset="0.235" stop-color="#3BDEF7"/>
<stop offset="1" stop-color="#3E60A5"/>
</linearGradient>
<linearGradient id="paint7_linear_23_2" x1="371.368" y1="175.091" x2="117.032" y2="507.493" gradientUnits="userSpaceOnUse">
<stop stop-color="#FFFEFC"/>
<stop offset="0.52" stop-color="#16D8F6"/>
<stop offset="0.81" stop-color="#3D70AF"/>
</linearGradient>
<linearGradient id="paint8_linear_23_2" x1="116.852" y1="67.8546" x2="169.5" y2="265" gradientUnits="userSpaceOnUse">
<stop stop-color="#D6F7FB"/>
<stop offset="0.235" stop-color="#3BDEF7"/>
<stop offset="1" stop-color="#3E60A5"/>
</linearGradient>
<linearGradient id="paint9_linear_23_2" x1="170.717" y1="180.305" x2="170.717" y2="240.135" gradientUnits="userSpaceOnUse">
<stop stop-color="#D6F7FB"/>
<stop offset="0.235" stop-color="#3BDEF7"/>
<stop offset="1" stop-color="#3E60A5"/>
</linearGradient>
<linearGradient id="paint10_linear_23_2" x1="260.172" y1="32.7606" x2="260.172" y2="118.38" gradientUnits="userSpaceOnUse">
<stop stop-color="#D6F7FB"/>
<stop offset="0.235" stop-color="#3BDEF7"/>
<stop offset="1" stop-color="#3E60A5"/>
</linearGradient>
<linearGradient id="paint11_linear_23_2" x1="400.322" y1="115.669" x2="91.1044" y2="460.93" gradientUnits="userSpaceOnUse">
<stop stop-color="#FFFEFC"/>
<stop offset="0.52" stop-color="#16D8F6"/>
<stop offset="0.71" stop-color="#3D70AF"/>
</linearGradient>
</defs>
</svg>
